<svg width="512" height="512" viewBox="0 0 512 512" xmlns="http://www.w3.org/2000/svg" role="img" aria-label="Banco Bral — One Bral coin">
  <defs>
    <!-- body gradient: brushed aluminum with warm core -->
    <radialGradient id="body" cx="38%" cy="30%" r="78%">
      <stop offset="0%"   stop-color="#fbf9f3" />
      <stop offset="30%"  stop-color="#e3ded3" />
      <stop offset="62%"  stop-color="#c9c5be" />
      <stop offset="88%"  stop-color="#8a857b" />
      <stop offset="100%" stop-color="#5a564f" />
    </radialGradient>
    <!-- inner field gradient -->
    <radialGradient id="field" cx="50%" cy="48%" r="58%">
      <stop offset="0%"   stop-color="#e5e0d5" />
      <stop offset="55%"  stop-color="#cdc8c0" />
      <stop offset="100%" stop-color="#9c9890" />
    </radialGradient>
    <!-- edge rim (darker outer ring) -->
    <radialGradient id="rim" cx="50%" cy="50%" r="50%">
      <stop offset="92%"  stop-color="#3c3832" stop-opacity="0" />
      <stop offset="98%"  stop-color="#3c3832" stop-opacity="0.55" />
      <stop offset="100%" stop-color="#1a1714" stop-opacity="0.9" />
    </radialGradient>
    <!-- subtle inner vignette -->
    <radialGradient id="vignette" cx="50%" cy="50%" r="50%">
      <stop offset="70%"  stop-color="#000" stop-opacity="0" />
      <stop offset="100%" stop-color="#1a1714" stop-opacity="0.35" />
    </radialGradient>
    <!-- bottom shadow, warming the lower half -->
    <linearGradient id="warm" x1="0%" y1="0%" x2="0%" y2="100%">
      <stop offset="0%"   stop-color="#000" stop-opacity="0" />
      <stop offset="100%" stop-color="#3a2a18" stop-opacity="0.18" />
    </linearGradient>
    <!-- specular highlight blur -->
    <filter id="soft" x="-20%" y="-20%" width="140%" height="140%">
      <feGaussianBlur stdDeviation="6" />
    </filter>
    <!-- arc paths for legend -->
    <path id="arc-top" d="M 44 256 A 212 212 0 0 1 468 256" />
    <path id="arc-bot" d="M 468 256 A 212 212 0 0 1 44 256" />
  </defs>

  <!-- reeded edge (128 ticks for clean density) -->
  <g stroke="#4e4a42" stroke-width="1.4" stroke-linecap="butt">
    <g id="reeds">
      <!-- generated via symmetry below -->
    </g>
  </g>
  <!-- 96 reeds, each a short radial line between r=246 and r=254 -->
  <g>
    <!-- using transform-origin rotations -->
    <g fill="none" stroke="#55514a" stroke-width="1.2">
      <!-- we draw 96 lines by hand via rotate transforms on a group -->
    </g>
  </g>

  <!-- Reeded edge: 96 ticks, drawn via <line> with rotate group -->
  <g transform="translate(256 256)">
    <g stroke="#4e4a42" stroke-width="1.3">
      <!-- 96 lines; each rotated by (360/96)=3.75deg -->
      <g><line x1="0" y1="-254" x2="0" y2="-246" /></g>
      <g transform="rotate(3.75)"><line x1="0" y1="-254" x2="0" y2="-246" /></g>
      <g transform="rotate(7.5)"><line x1="0" y1="-254" x2="0" y2="-246" /></g>
      <g transform="rotate(11.25)"><line x1="0" y1="-254" x2="0" y2="-246" /></g>
      <g transform="rotate(15)"><line x1="0" y1="-254" x2="0" y2="-246" /></g>
      <g transform="rotate(18.75)"><line x1="0" y1="-254" x2="0" y2="-246" /></g>
      <g transform="rotate(22.5)"><line x1="0" y1="-254" x2="0" y2="-246" /></g>
      <g transform="rotate(26.25)"><line x1="0" y1="-254" x2="0" y2="-246" /></g>
      <g transform="rotate(30)"><line x1="0" y1="-254" x2="0" y2="-246" /></g>
      <g transform="rotate(33.75)"><line x1="0" y1="-254" x2="0" y2="-246" /></g>
      <g transform="rotate(37.5)"><line x1="0" y1="-254" x2="0" y2="-246" /></g>
      <g transform="rotate(41.25)"><line x1="0" y1="-254" x2="0" y2="-246" /></g>
      <g transform="rotate(45)"><line x1="0" y1="-254" x2="0" y2="-246" /></g>
      <g transform="rotate(48.75)"><line x1="0" y1="-254" x2="0" y2="-246" /></g>
      <g transform="rotate(52.5)"><line x1="0" y1="-254" x2="0" y2="-246" /></g>
      <g transform="rotate(56.25)"><line x1="0" y1="-254" x2="0" y2="-246" /></g>
      <g transform="rotate(60)"><line x1="0" y1="-254" x2="0" y2="-246" /></g>
      <g transform="rotate(63.75)"><line x1="0" y1="-254" x2="0" y2="-246" /></g>
      <g transform="rotate(67.5)"><line x1="0" y1="-254" x2="0" y2="-246" /></g>
      <g transform="rotate(71.25)"><line x1="0" y1="-254" x2="0" y2="-246" /></g>
      <g transform="rotate(75)"><line x1="0" y1="-254" x2="0" y2="-246" /></g>
      <g transform="rotate(78.75)"><line x1="0" y1="-254" x2="0" y2="-246" /></g>
      <g transform="rotate(82.5)"><line x1="0" y1="-254" x2="0" y2="-246" /></g>
      <g transform="rotate(86.25)"><line x1="0" y1="-254" x2="0" y2="-246" /></g>
      <g transform="rotate(90)"><line x1="0" y1="-254" x2="0" y2="-246" /></g>
      <g transform="rotate(93.75)"><line x1="0" y1="-254" x2="0" y2="-246" /></g>
      <g transform="rotate(97.5)"><line x1="0" y1="-254" x2="0" y2="-246" /></g>
      <g transform="rotate(101.25)"><line x1="0" y1="-254" x2="0" y2="-246" /></g>
      <g transform="rotate(105)"><line x1="0" y1="-254" x2="0" y2="-246" /></g>
      <g transform="rotate(108.75)"><line x1="0" y1="-254" x2="0" y2="-246" /></g>
      <g transform="rotate(112.5)"><line x1="0" y1="-254" x2="0" y2="-246" /></g>
      <g transform="rotate(116.25)"><line x1="0" y1="-254" x2="0" y2="-246" /></g>
      <g transform="rotate(120)"><line x1="0" y1="-254" x2="0" y2="-246" /></g>
      <g transform="rotate(123.75)"><line x1="0" y1="-254" x2="0" y2="-246" /></g>
      <g transform="rotate(127.5)"><line x1="0" y1="-254" x2="0" y2="-246" /></g>
      <g transform="rotate(131.25)"><line x1="0" y1="-254" x2="0" y2="-246" /></g>
      <g transform="rotate(135)"><line x1="0" y1="-254" x2="0" y2="-246" /></g>
      <g transform="rotate(138.75)"><line x1="0" y1="-254" x2="0" y2="-246" /></g>
      <g transform="rotate(142.5)"><line x1="0" y1="-254" x2="0" y2="-246" /></g>
      <g transform="rotate(146.25)"><line x1="0" y1="-254" x2="0" y2="-246" /></g>
      <g transform="rotate(150)"><line x1="0" y1="-254" x2="0" y2="-246" /></g>
      <g transform="rotate(153.75)"><line x1="0" y1="-254" x2="0" y2="-246" /></g>
      <g transform="rotate(157.5)"><line x1="0" y1="-254" x2="0" y2="-246" /></g>
      <g transform="rotate(161.25)"><line x1="0" y1="-254" x2="0" y2="-246" /></g>
      <g transform="rotate(165)"><line x1="0" y1="-254" x2="0" y2="-246" /></g>
      <g transform="rotate(168.75)"><line x1="0" y1="-254" x2="0" y2="-246" /></g>
      <g transform="rotate(172.5)"><line x1="0" y1="-254" x2="0" y2="-246" /></g>
      <g transform="rotate(176.25)"><line x1="0" y1="-254" x2="0" y2="-246" /></g>
      <g transform="rotate(180)"><line x1="0" y1="-254" x2="0" y2="-246" /></g>
      <g transform="rotate(183.75)"><line x1="0" y1="-254" x2="0" y2="-246" /></g>
      <g transform="rotate(187.5)"><line x1="0" y1="-254" x2="0" y2="-246" /></g>
      <g transform="rotate(191.25)"><line x1="0" y1="-254" x2="0" y2="-246" /></g>
      <g transform="rotate(195)"><line x1="0" y1="-254" x2="0" y2="-246" /></g>
      <g transform="rotate(198.75)"><line x1="0" y1="-254" x2="0" y2="-246" /></g>
      <g transform="rotate(202.5)"><line x1="0" y1="-254" x2="0" y2="-246" /></g>
      <g transform="rotate(206.25)"><line x1="0" y1="-254" x2="0" y2="-246" /></g>
      <g transform="rotate(210)"><line x1="0" y1="-254" x2="0" y2="-246" /></g>
      <g transform="rotate(213.75)"><line x1="0" y1="-254" x2="0" y2="-246" /></g>
      <g transform="rotate(217.5)"><line x1="0" y1="-254" x2="0" y2="-246" /></g>
      <g transform="rotate(221.25)"><line x1="0" y1="-254" x2="0" y2="-246" /></g>
      <g transform="rotate(225)"><line x1="0" y1="-254" x2="0" y2="-246" /></g>
      <g transform="rotate(228.75)"><line x1="0" y1="-254" x2="0" y2="-246" /></g>
      <g transform="rotate(232.5)"><line x1="0" y1="-254" x2="0" y2="-246" /></g>
      <g transform="rotate(236.25)"><line x1="0" y1="-254" x2="0" y2="-246" /></g>
      <g transform="rotate(240)"><line x1="0" y1="-254" x2="0" y2="-246" /></g>
      <g transform="rotate(243.75)"><line x1="0" y1="-254" x2="0" y2="-246" /></g>
      <g transform="rotate(247.5)"><line x1="0" y1="-254" x2="0" y2="-246" /></g>
      <g transform="rotate(251.25)"><line x1="0" y1="-254" x2="0" y2="-246" /></g>
      <g transform="rotate(255)"><line x1="0" y1="-254" x2="0" y2="-246" /></g>
      <g transform="rotate(258.75)"><line x1="0" y1="-254" x2="0" y2="-246" /></g>
      <g transform="rotate(262.5)"><line x1="0" y1="-254" x2="0" y2="-246" /></g>
      <g transform="rotate(266.25)"><line x1="0" y1="-254" x2="0" y2="-246" /></g>
      <g transform="rotate(270)"><line x1="0" y1="-254" x2="0" y2="-246" /></g>
      <g transform="rotate(273.75)"><line x1="0" y1="-254" x2="0" y2="-246" /></g>
      <g transform="rotate(277.5)"><line x1="0" y1="-254" x2="0" y2="-246" /></g>
      <g transform="rotate(281.25)"><line x1="0" y1="-254" x2="0" y2="-246" /></g>
      <g transform="rotate(285)"><line x1="0" y1="-254" x2="0" y2="-246" /></g>
      <g transform="rotate(288.75)"><line x1="0" y1="-254" x2="0" y2="-246" /></g>
      <g transform="rotate(292.5)"><line x1="0" y1="-254" x2="0" y2="-246" /></g>
      <g transform="rotate(296.25)"><line x1="0" y1="-254" x2="0" y2="-246" /></g>
      <g transform="rotate(300)"><line x1="0" y1="-254" x2="0" y2="-246" /></g>
      <g transform="rotate(303.75)"><line x1="0" y1="-254" x2="0" y2="-246" /></g>
      <g transform="rotate(307.5)"><line x1="0" y1="-254" x2="0" y2="-246" /></g>
      <g transform="rotate(311.25)"><line x1="0" y1="-254" x2="0" y2="-246" /></g>
      <g transform="rotate(315)"><line x1="0" y1="-254" x2="0" y2="-246" /></g>
      <g transform="rotate(318.75)"><line x1="0" y1="-254" x2="0" y2="-246" /></g>
      <g transform="rotate(322.5)"><line x1="0" y1="-254" x2="0" y2="-246" /></g>
      <g transform="rotate(326.25)"><line x1="0" y1="-254" x2="0" y2="-246" /></g>
      <g transform="rotate(330)"><line x1="0" y1="-254" x2="0" y2="-246" /></g>
      <g transform="rotate(333.75)"><line x1="0" y1="-254" x2="0" y2="-246" /></g>
      <g transform="rotate(337.5)"><line x1="0" y1="-254" x2="0" y2="-246" /></g>
      <g transform="rotate(341.25)"><line x1="0" y1="-254" x2="0" y2="-246" /></g>
      <g transform="rotate(345)"><line x1="0" y1="-254" x2="0" y2="-246" /></g>
      <g transform="rotate(348.75)"><line x1="0" y1="-254" x2="0" y2="-246" /></g>
      <g transform="rotate(352.5)"><line x1="0" y1="-254" x2="0" y2="-246" /></g>
      <g transform="rotate(356.25)"><line x1="0" y1="-254" x2="0" y2="-246" /></g>
    </g>
  </g>

  <!-- outer body -->
  <circle cx="256" cy="256" r="245" fill="url(#body)" />
  <!-- inner field -->
  <circle cx="256" cy="256" r="225" fill="url(#field)" stroke="#75716a" stroke-width="1" />
  <!-- warm bottom wash -->
  <circle cx="256" cy="256" r="225" fill="url(#warm)" />

  <!-- decorative dot ring -->
  <circle cx="256" cy="256" r="215" fill="none" stroke="#3c352d" stroke-width="1.8" stroke-dasharray="1.8 9.4" opacity="0.78" />
  <!-- thin concentric hairline -->
  <circle cx="256" cy="256" r="205" fill="none" stroke="#3c352d" stroke-width="0.6" opacity="0.28" />

  <!-- numeral 1 — engraved effect via offset shadow + main stroke -->
  <g>
    <text x="258" y="300" text-anchor="middle" font-family="Instrument Serif, Georgia, serif" font-size="260" fill="#f4efe4" opacity="0.55" style="letter-spacing:-0.03em">1</text>
    <text x="256" y="298" text-anchor="middle" font-family="Instrument Serif, Georgia, serif" font-size="260" fill="#1f1c18" style="letter-spacing:-0.03em">1</text>
  </g>

  <!-- arc legend: BANCO · BRAL (top), UNUM BRAL (bottom) -->
  <text font-family="JetBrains Mono, Courier New, monospace" font-size="30" fill="#1f1c18" letter-spacing="6" font-weight="600">
    <textPath href="#arc-top" startOffset="50%" text-anchor="middle">BANCO · BRAL</textPath>
  </text>
  <text font-family="JetBrains Mono, Courier New, monospace" font-size="26" fill="#1f1c18" letter-spacing="6" font-weight="500" opacity="0.8">
    <textPath href="#arc-bot" startOffset="50%" text-anchor="middle">· UNUM BRAL · A.D. 2024 ·</textPath>
  </text>

  <!-- rim darkening -->
  <circle cx="256" cy="256" r="256" fill="url(#rim)" />
  <!-- inner vignette -->
  <circle cx="256" cy="256" r="225" fill="url(#vignette)" />

  <!-- primary specular highlight -->
  <ellipse cx="178" cy="140" rx="120" ry="46" fill="#fff" opacity="0.28" filter="url(#soft)" />
  <!-- secondary glint -->
  <ellipse cx="360" cy="380" rx="60" ry="16" fill="#fff" opacity="0.10" filter="url(#soft)" />
  <!-- crescent highlight along top-left edge -->
  <path d="M 72 220 A 200 200 0 0 1 232 66" fill="none" stroke="#fff" stroke-width="6" opacity="0.22" filter="url(#soft)" />
</svg>
